<?xml version="1.0" encoding="UTF-8"?>
<!DOCTYPE svg PUBLIC "-//W3C//DTD SVG 1.1//EN" "http://www.w3.org/Graphics/SVG/1.1/DTD/svg11.dtd">
<svg xmlns="http://www.w3.org/2000/svg" version="1.1" width="240px" height="240px" style="shape-rendering:geometricPrecision; text-rendering:geometricPrecision; image-rendering:optimizeQuality; fill-rule:evenodd; clip-rule:evenodd" xmlns:xlink="http://www.w3.org/1999/xlink">
<g><path style="opacity:1" fill="#000000" d="M 239.5,113.5 C 239.5,117.167 239.5,120.833 239.5,124.5C 238.215,130.559 235.215,135.726 230.5,140C 222.786,142.244 214.953,143.744 207,144.5C 208.078,170.202 207.411,195.869 205,221.5C 204.226,225.147 203.559,228.814 203,232.5C 200.604,235.067 198.104,237.4 195.5,239.5C 144.833,239.5 94.1667,239.5 43.5,239.5C 40.8959,237.4 38.3959,235.067 36,232.5C 33.2038,214.789 31.7038,196.955 31.5,179C 32.3749,167.506 32.5415,156.006 32,144.5C 24.0471,143.744 16.2138,142.244 8.5,140C 3.78536,135.726 0.785362,130.559 -0.5,124.5C -0.5,120.833 -0.5,117.167 -0.5,113.5C 4.22454,107.072 8.72454,100.405 13,93.5C 35.8902,70.4846 61.3902,50.9846 89.5,35C 97.3555,31.24 105.022,27.24 112.5,23C 117.167,22.3333 121.833,22.3333 126.5,23C 149.904,34.8708 172.237,48.5375 193.5,64C 204.632,73.4639 215.466,83.2973 226,93.5C 230.275,100.405 234.775,107.072 239.5,113.5 Z"/></g>
</svg>
