<?xml version="1.0" encoding="UTF-8"?>
<!DOCTYPE svg PUBLIC "-//W3C//DTD SVG 1.1//EN" "http://www.w3.org/Graphics/SVG/1.1/DTD/svg11.dtd">
<svg xmlns="http://www.w3.org/2000/svg" version="1.1" width="240px" height="240px" style="shape-rendering:geometricPrecision; text-rendering:geometricPrecision; image-rendering:optimizeQuality; fill-rule:evenodd; clip-rule:evenodd" xmlns:xlink="http://www.w3.org/1999/xlink">
<g><path style="opacity:1" fill="#000000" d="M -0.5,60.5 C -0.5,58.1667 -0.5,55.8333 -0.5,53.5C 0.646381,51.525 2.31305,50.025 4.5,49C 16.1746,48.7039 27.8413,49.0372 39.5,50C 40.3333,50.8333 41.1667,51.6667 42,52.5C 45.3011,60.7317 48.8011,68.8983 52.5,77C 110.833,77.3333 169.167,77.6667 227.5,78C 233.66,78.3212 236.327,81.4879 235.5,87.5C 235.567,91.6949 234.734,95.6949 233,99.5C 222.99,124.516 211.657,148.85 199,172.5C 197.075,173.88 195.241,175.38 193.5,177C 161.539,178.297 129.539,178.963 97.5,179C 94.2872,181.423 91.2872,184.09 88.5,187C 89.6226,188.044 90.9559,188.71 92.5,189C 96.1667,189.333 99.8333,189.667 103.5,190C 130.171,190.308 156.838,190.308 183.5,190C 185.329,190.273 186.829,191.107 188,192.5C 188.667,196.167 188.667,199.833 188,203.5C 187.5,204 187,204.5 186.5,205C 155.252,206.651 123.919,206.985 92.5,206C 84.3746,206.075 77.5413,203.242 72,197.5C 68.7505,188.393 70.4172,180.393 77,173.5C 77.6667,172.167 77.6667,170.833 77,169.5C 59.0253,136.106 42.8587,101.772 28.5,66.5C 20.5207,65.6684 12.5207,65.1684 4.5,65C 2.31305,63.975 0.646381,62.475 -0.5,60.5 Z M 61.5,94.5 C 112.838,94.1667 164.171,94.5001 215.5,95.5C 206.371,117.924 196.037,139.758 184.5,161C 153.833,161.667 123.167,161.667 92.5,161C 80.676,139.519 70.3427,117.353 61.5,94.5 Z"/></g>
<g><path style="opacity:1" fill="#000000" d="M 71.5,209.5 C 83.3216,208.487 88.4883,213.821 87,225.5C 83.1586,233.16 76.992,235.66 68.5,233C 62.3531,228.059 60.8531,221.892 64,214.5C 66.1699,212.177 68.6699,210.51 71.5,209.5 Z"/></g>
<g><path style="opacity:1" fill="#000000" d="M 183.5,209.5 C 195.322,208.487 200.488,213.821 199,225.5C 195.159,233.16 188.992,235.66 180.5,233C 174.353,228.059 172.853,221.892 176,214.5C 178.17,212.177 180.67,210.51 183.5,209.5 Z"/></g>
</svg>
