<?xml version="1.0" encoding="UTF-8"?>
<!DOCTYPE svg PUBLIC "-//W3C//DTD SVG 1.1//EN" "http://www.w3.org/Graphics/SVG/1.1/DTD/svg11.dtd">
<svg xmlns="http://www.w3.org/2000/svg" version="1.1" width="240px" height="240px" style="shape-rendering:geometricPrecision; text-rendering:geometricPrecision; image-rendering:optimizeQuality; fill-rule:evenodd; clip-rule:evenodd" xmlns:xlink="http://www.w3.org/1999/xlink">
<g><path style="opacity:1" fill="#000000" d="M 100.5,44.5 C 122.427,44.2893 144.427,44.7893 166.5,46C 174.004,46.3757 181.337,47.709 188.5,50C 189.333,50.8333 190.167,51.6667 191,52.5C 192.173,99.4958 192.506,146.496 192,193.5C 192.508,201.992 188.508,206.325 180,206.5C 176.805,205.822 173.638,204.988 170.5,204C 152.81,193.141 135.81,181.307 119.5,168.5C 103.19,181.307 86.1901,193.141 68.5,204C 61.6158,207.728 55.1158,207.228 49,202.5C 47.8732,199.623 47.2065,196.623 47,193.5C 46.4939,146.496 46.8272,99.4958 48,52.5C 48.8333,51.6667 49.6667,50.8333 50.5,50C 54.5,49 58.5,48 62.5,47C 75.3159,46.0708 87.9826,45.2374 100.5,44.5 Z M 86.5,61.5 C 105.506,61.8743 124.506,61.8743 143.5,61.5C 152.168,61.9805 160.834,62.4805 169.5,63C 171.218,63.346 172.885,63.846 174.5,64.5C 175.285,98.665 175.952,132.832 176.5,167C 176.601,173.245 176.101,179.411 175,185.5C 157.548,174.191 140.715,162.024 124.5,149C 120.375,148.146 116.375,148.48 112.5,150C 97.1753,162.993 81.0086,174.826 64,185.5C 62.8989,179.411 62.3989,173.245 62.5,167C 63.0479,132.832 63.7146,98.665 64.5,64.5C 71.8919,63.0352 79.2252,62.0352 86.5,61.5 Z"/></g>
</svg>
