<?xml version="1.0" encoding="UTF-8"?>
<!DOCTYPE svg PUBLIC "-//W3C//DTD SVG 1.1//EN" "http://www.w3.org/Graphics/SVG/1.1/DTD/svg11.dtd">
<svg xmlns="http://www.w3.org/2000/svg" version="1.1" width="240px" height="240px" style="shape-rendering:geometricPrecision; text-rendering:geometricPrecision; image-rendering:optimizeQuality; fill-rule:evenodd; clip-rule:evenodd" xmlns:xlink="http://www.w3.org/1999/xlink">
<g><path style="opacity:1" fill="#000000" d="M 108.5,9.5 C 146.268,6.74606 177.935,19.0794 203.5,46.5C 227.121,75.5829 234.954,108.583 227,145.5C 213.971,191.865 183.804,219.365 136.5,228C 97.106,232.984 63.9393,221.151 37,192.5C 7.68142,154.916 2.34809,113.916 21,69.5C 39.8586,34.4859 69.0253,14.4859 108.5,9.5 Z M 115.5,25.5 C 165.587,27.4401 197.421,52.4401 211,100.5C 217.198,141.585 203.364,174.085 169.5,198C 128.751,220.274 90.7507,216.274 55.5,186C 19.4267,145.491 17.26,103.325 49,59.5C 66.9827,39.7596 89.1494,28.4262 115.5,25.5 Z"/></g>
<g><path style="opacity:1" fill="#000000" d="M 113.5,66.5 C 117.182,66.3347 120.848,66.5014 124.5,67C 125.701,67.9025 126.535,69.0692 127,70.5C 127.333,87.5 127.667,104.5 128,121.5C 137.482,115.515 146.982,109.682 156.5,104C 167.255,100.764 171.755,104.597 170,115.5C 168.833,116.667 167.667,117.833 166.5,119C 153.167,127 139.833,135 126.5,143C 120.924,144.472 116.091,143.305 112,139.5C 110.846,116.508 110.513,93.5082 111,70.5C 111.662,69.0161 112.496,67.6828 113.5,66.5 Z"/></g>
</svg>
