<?xml version="1.0" encoding="UTF-8"?>
<!DOCTYPE svg PUBLIC "-//W3C//DTD SVG 1.1//EN" "http://www.w3.org/Graphics/SVG/1.1/DTD/svg11.dtd">
<svg xmlns="http://www.w3.org/2000/svg" version="1.1" width="240px" height="240px" style="shape-rendering:geometricPrecision; text-rendering:geometricPrecision; image-rendering:optimizeQuality; fill-rule:evenodd; clip-rule:evenodd" xmlns:xlink="http://www.w3.org/1999/xlink">
<g><path style="opacity:1" fill="#000000" d="M 74.5,-0.5 C 77.1667,-0.5 79.8333,-0.5 82.5,-0.5C 82.5,-0.166667 82.5,0.166667 82.5,0.5C 79.9407,0.198448 77.6074,0.531782 75.5,1.5C 73.4727,1.66212 71.4727,1.49546 69.5,1C 71.3817,0.801916 73.0484,0.301916 74.5,-0.5 Z"/></g>
<g><path style="opacity:1" fill="#000000" d="M 82.5,0.5 C 103.41,-1.22228 123.41,2.11105 142.5,10.5C 142.632,13.0069 143.632,13.6736 145.5,12.5C 145.393,14.3786 145.893,14.7119 147,13.5C 147.93,15.5524 149.43,17.0524 151.5,18C 152.437,18.6917 153.103,18.525 153.5,17.5C 156.681,22.1576 161.015,25.6576 166.5,28C 165.833,28.3333 165.167,28.6667 164.5,29C 166.306,30.8063 168.14,32.6396 170,34.5C 171.107,33.2881 171.607,33.6214 171.5,35.5C 170.167,36.1667 170.167,36.8333 171.5,37.5C 172.262,39.2624 173.596,40.2624 175.5,40.5C 173.969,41.9245 174.302,42.5912 176.5,42.5C 179.308,46.9618 181.641,51.6284 183.5,56.5C 183.328,57.4916 183.662,58.1583 184.5,58.5C 186.665,65.4867 188.331,72.4867 189.5,79.5C 189.19,82.7131 189.523,85.7131 190.5,88.5C 190.179,94.0262 190.512,99.3595 191.5,104.5C 191.811,109.766 191.145,114.766 189.5,119.5C 189.167,112.833 188.833,112.833 188.5,119.5C 187.549,120.919 187.216,122.585 187.5,124.5C 186.566,125.568 186.232,126.901 186.5,128.5C 185.662,128.842 185.328,129.508 185.5,130.5C 184.596,131.209 184.263,132.209 184.5,133.5C 183.662,133.842 183.328,134.508 183.5,135.5C 182.662,135.842 182.328,136.508 182.5,137.5C 181.596,138.209 181.263,139.209 181.5,140.5C 180.662,140.842 180.328,141.508 180.5,142.5C 179.662,142.842 179.328,143.508 179.5,144.5C 178.662,144.842 178.328,145.508 178.5,146.5C 177.662,146.842 177.328,147.508 177.5,148.5C 176.662,148.842 176.328,149.508 176.5,150.5C 173.59,152.239 171.09,154.572 169,157.5C 168.395,159.635 168.895,159.969 170.5,158.5C 170.573,160.027 169.906,161.027 168.5,161.5C 168.167,160.167 167.833,160.167 167.5,161.5C 166.833,161.5 166.5,161.833 166.5,162.5C 165.833,162.5 165.5,162.833 165.5,163.5C 164.833,163.5 164.5,163.833 164.5,164.5C 163.833,164.5 163.5,164.833 163.5,165.5C 162.711,165.783 162.044,166.283 161.5,167C 165.722,167.074 169.722,167.908 173.5,169.5C 173.5,170.167 173.833,170.5 174.5,170.5C 178.155,175.486 182.155,180.153 186.5,184.5C 189.112,187.779 192.112,190.779 195.5,193.5C 201.761,202.138 209.094,210.471 217.5,218.5C 218.263,219.268 219.263,219.768 220.5,220C 219.833,220.333 219.167,220.667 218.5,221C 220.293,223.47 222.127,225.97 224,228.5C 225.266,236.797 221.766,239.964 213.5,238C 210.01,236.801 207.01,234.968 204.5,232.5C 200.86,225.861 195.86,220.528 189.5,216.5C 187.905,212.72 185.405,210.387 182,209.5C 181.333,208.833 181.333,208.167 182,207.5C 182.654,208.696 183.154,208.696 183.5,207.5C 182.145,205.479 180.479,203.812 178.5,202.5C 178.5,201.833 178.167,201.5 177.5,201.5C 175.156,199.509 173.49,197.509 172.5,195.5C 172.5,194.833 172.167,194.5 171.5,194.5C 168.85,190.289 165.517,186.622 161.5,183.5C 161.672,182.508 161.338,181.842 160.5,181.5C 160.672,180.508 160.338,179.842 159.5,179.5C 159.665,176.15 159.498,172.817 159,169.5C 158.5,170 158,170.5 157.5,171C 158.444,173.719 158.777,176.552 158.5,179.5C 158.06,177.156 157.06,175.156 155.5,173.5C 156.463,172.637 156.463,171.97 155.5,171.5C 154.702,171.957 154.369,172.624 154.5,173.5C 153.167,173.833 153.167,174.167 154.5,174.5C 154.158,175.338 153.492,175.672 152.5,175.5C 151.833,174.167 151.167,174.167 150.5,175.5C 149.069,175.881 148.236,176.881 148,178.5C 146.893,177.288 146.393,177.621 146.5,179.5C 145.075,177.969 144.409,178.302 144.5,180.5C 143.075,178.969 142.409,179.302 142.5,181.5C 141.508,181.328 140.842,181.662 140.5,182.5C 139.508,182.328 138.842,182.662 138.5,183.5C 137.508,183.328 136.842,183.662 136.5,184.5C 134.102,184.259 132.102,184.926 130.5,186.5C 129.508,186.328 128.842,186.662 128.5,187.5C 126.585,187.216 124.919,187.549 123.5,188.5C 122.508,188.328 121.842,188.662 121.5,189.5C 119.585,189.216 117.919,189.549 116.5,190.5C 113.615,190.194 110.948,190.527 108.5,191.5C 98.5,191.5 88.5,191.5 78.5,191.5C 77.4324,190.566 76.099,190.232 74.5,190.5C 65.5102,188.194 56.5102,185.527 47.5,182.5C 47.1583,181.662 46.4916,181.328 45.5,181.5C 45.1667,177.5 44.8333,177.5 44.5,181.5C 42.4916,180.699 41.9916,179.366 43,177.5C 41.984,178.634 41.3173,178.301 41,176.5C 39.9505,177.517 38.7839,177.684 37.5,177C 38.1667,176.667 38.8333,176.333 39.5,176C 38.2644,174.915 36.9311,174.082 35.5,173.5C 29.8596,168.195 24.1929,162.861 18.5,157.5C 18.6716,156.508 18.3382,155.842 17.5,155.5C 17.1667,152.833 16.8333,152.833 16.5,155.5C 15.8333,154.167 15.1667,152.833 14.5,151.5C 14.1601,148.325 12.4934,146.159 9.5,145C 10.7119,143.893 10.3786,143.393 8.5,143.5C 10.0311,142.075 9.69772,141.409 7.5,141.5C 9.03105,140.075 8.69772,139.409 6.5,139.5C 6.40505,137.214 5.73838,135.214 4.5,133.5C 2.79263,126.736 1.12596,120.07 -0.5,113.5C -0.5,101.833 -0.5,90.1667 -0.5,78.5C 0.74919,71.797 2.58252,65.1304 5,58.5C 5.79217,56.4127 6.95884,54.5793 8.5,53C 7.94404,52.6174 7.61071,52.1174 7.5,51.5C 9.69772,51.5912 10.0311,50.9245 8.5,49.5C 10.3786,49.6068 10.7119,49.1068 9.5,48C 10.1667,47.6667 10.8333,47.3333 11.5,47C 10.5494,46.2825 10.3828,45.4491 11,44.5C 11.6667,45.8333 12.3333,45.8333 13,44.5C 15.8134,39.6899 18.98,35.1899 22.5,31C 21.8333,30.6667 21.1667,30.3333 20.5,30C 23.3586,29.7335 26.0252,28.5668 28.5,26.5C 28.5,25.5 28.5,24.5 28.5,23.5C 29.791,23.7373 30.791,23.404 31.5,22.5C 32.1667,22.5 32.5,22.1667 32.5,21.5C 33.1667,21.5 33.5,21.1667 33.5,20.5C 35.487,19.8358 37.1537,18.6692 38.5,17C 38.1667,16.6667 37.8333,16.3333 37.5,16C 38.745,15.2086 40.0783,14.7086 41.5,14.5C 41.8333,15.8333 42.1667,15.8333 42.5,14.5C 43.1667,14.5 43.5,14.1667 43.5,13.5C 44.5,12.5 45.5,11.5 46.5,10.5C 47.4916,10.6716 48.1583,10.3382 48.5,9.5C 57.4517,6.34944 66.4517,3.68277 75.5,1.5C 78.0593,1.80155 80.3926,1.46822 82.5,0.5 Z M 106.5,17.5 C 107.568,18.4345 108.901,18.7678 110.5,18.5C 111.568,19.4345 112.901,19.7678 114.5,19.5C 118.652,20.2359 122.652,21.5692 126.5,23.5C 126.842,24.3382 127.508,24.6716 128.5,24.5C 128.842,25.3382 129.508,25.6716 130.5,25.5C 130.5,26.1667 130.833,26.5 131.5,26.5C 131.842,27.3382 132.508,27.6716 133.5,27.5C 133.842,28.3382 134.508,28.6716 135.5,28.5C 135.5,29.1667 135.833,29.5 136.5,29.5C 136.842,30.3382 137.508,30.6716 138.5,30.5C 138.5,31.1667 138.833,31.5 139.5,31.5C 139.694,33.9118 141.027,34.9118 143.5,34.5C 143.947,37.5239 144.78,37.8572 146,35.5C 149.174,38.1524 151.674,41.1524 153.5,44.5C 153.5,45.1667 153.833,45.5 154.5,45.5C 154.5,46.1667 154.833,46.5 155.5,46.5C 155.5,47.1667 155.833,47.5 156.5,47.5C 156.5,48.1667 156.833,48.5 157.5,48.5C 157.328,49.4916 157.662,50.1583 158.5,50.5C 158.5,51.1667 158.833,51.5 159.5,51.5C 159.5,52.1667 159.833,52.5 160.5,52.5C 160.328,53.4916 160.662,54.1583 161.5,54.5C 161.328,55.4916 161.662,56.1583 162.5,56.5C 163.364,58.919 164.697,60.919 166.5,62.5C 167.799,65.8848 169.466,69.0515 171.5,72C 170.185,73.3946 170.519,74.3946 172.5,75C 171.075,76.7141 171.408,78.0475 173.5,79C 173.167,79.3333 172.833,79.6667 172.5,80C 173.658,81.0086 174.325,82.3419 174.5,84C 173.203,92.0052 173.203,100.005 174.5,108C 174.055,109.447 173.388,110.78 172.5,112C 172.645,112.772 172.978,113.439 173.5,114C 171.519,114.605 171.185,115.605 172.5,117C 170.408,117.953 170.075,119.286 171.5,121C 169.371,124.093 167.371,127.26 165.5,130.5C 164.596,131.209 164.263,132.209 164.5,133.5C 163.833,133.5 163.5,133.833 163.5,134.5C 162.662,134.842 162.328,135.508 162.5,136.5C 161.662,136.842 161.328,137.508 161.5,138.5C 160.833,138.5 160.5,138.833 160.5,139.5C 159.833,139.5 159.5,139.833 159.5,140.5C 158.662,140.842 158.328,141.508 158.5,142.5C 157.833,142.5 157.5,142.833 157.5,143.5C 155.088,143.694 154.088,145.027 154.5,147.5C 153.833,147.5 153.5,147.833 153.5,148.5C 152.833,148.5 152.5,148.833 152.5,149.5C 151.833,149.5 151.5,149.833 151.5,150.5C 149.833,152.833 147.833,154.833 145.5,156.5C 143.027,156.088 141.694,157.088 141.5,159.5C 140.833,159.5 140.5,159.833 140.5,160.5C 139.508,160.328 138.842,160.662 138.5,161.5C 137.833,161.5 137.5,161.833 137.5,162.5C 136.508,162.328 135.842,162.662 135.5,163.5C 134.833,163.5 134.5,163.833 134.5,164.5C 133.508,164.328 132.842,164.662 132.5,165.5C 131.508,165.328 130.842,165.662 130.5,166.5C 129.508,166.328 128.842,166.662 128.5,167.5C 127.508,167.328 126.842,167.662 126.5,168.5C 125.508,168.328 124.842,168.662 124.5,169.5C 123.508,169.328 122.842,169.662 122.5,170.5C 119.572,170.565 116.905,171.232 114.5,172.5C 109.258,173.809 104.091,175.475 99,177.5C 96,176.167 93,176.167 90,177.5C 89.5,177 89,176.5 88.5,176C 83.3228,175.399 78.3228,174.233 73.5,172.5C 72.791,171.596 71.791,171.263 70.5,171.5C 70.1583,170.662 69.4916,170.328 68.5,170.5C 68.1583,169.662 67.4916,169.328 66.5,169.5C 66.5,169.167 66.5,168.833 66.5,168.5C 64.7857,167.262 62.7857,166.595 60.5,166.5C 60.0269,165.094 59.0269,164.427 57.5,164.5C 56.8333,164.5 56.1667,164.5 55.5,164.5C 55.1583,163.662 54.4916,163.328 53.5,163.5C 53.1583,162.662 52.4916,162.328 51.5,162.5C 51.5,161.833 51.1667,161.5 50.5,161.5C 50.5,160.833 50.1667,160.5 49.5,160.5C 49.1583,159.662 48.4916,159.328 47.5,159.5C 47.3059,157.088 45.9726,156.088 43.5,156.5C 43.5,155.833 43.1667,155.5 42.5,155.5C 42.5,154.833 42.1667,154.5 41.5,154.5C 41.5,153.833 41.1667,153.5 40.5,153.5C 39.5849,151.246 38.2516,149.246 36.5,147.5C 36.0269,146.094 35.0269,145.427 33.5,145.5C 32.5,144.5 31.5,143.5 30.5,142.5C 30.5,141.833 30.1667,141.5 29.5,141.5C 29.6716,140.508 29.3382,139.842 28.5,139.5C 28.5,138.833 28.1667,138.5 27.5,138.5C 27.6716,137.508 27.3382,136.842 26.5,136.5C 26.6716,135.508 26.3382,134.842 25.5,134.5C 25.5,133.833 25.1667,133.5 24.5,133.5C 24.6716,132.508 24.3382,131.842 23.5,131.5C 23.5,130.833 23.5,130.167 23.5,129.5C 23.5905,126.848 22.9238,124.515 21.5,122.5C 21.1667,122.5 20.8333,122.5 20.5,122.5C 20.6716,121.508 20.3382,120.842 19.5,120.5C 19.6716,119.508 19.3382,118.842 18.5,118.5C 18.7845,116.585 18.4511,114.919 17.5,113.5C 13.5426,102.181 13.5426,90.8473 17.5,79.5C 18.4345,78.4324 18.7678,77.099 18.5,75.5C 19.404,74.791 19.7373,73.791 19.5,72.5C 20.404,71.791 20.7373,70.791 20.5,69.5C 20.8333,69.5 21.1667,69.5 21.5,69.5C 22.7384,67.7857 23.405,65.7857 23.5,63.5C 23.5,62.8333 23.5,62.1667 23.5,61.5C 24.3382,61.1583 24.6716,60.4916 24.5,59.5C 25.3382,59.1583 25.6716,58.4916 25.5,57.5C 26.1667,57.5 26.5,57.1667 26.5,56.5C 27.3382,56.1583 27.6716,55.4916 27.5,54.5C 28.3382,54.1583 28.6716,53.4916 28.5,52.5C 29.1667,52.5 29.5,52.1667 29.5,51.5C 31.9118,51.3059 32.9118,49.9726 32.5,47.5C 33.1667,47.5 33.5,47.1667 33.5,46.5C 35.8025,44.022 37.9692,41.3553 40,38.5C 40.3333,38.8333 40.6667,39.1667 41,39.5C 41.3589,36.4557 42.0255,36.1224 43,38.5C 44.0386,37.7562 44.5386,36.7562 44.5,35.5C 45.1667,35.5 45.5,35.1667 45.5,34.5C 46.1667,34.5 46.5,34.1667 46.5,33.5C 47.4916,33.6716 48.1583,33.3382 48.5,32.5C 49.1667,32.5 49.5,32.1667 49.5,31.5C 50.1667,31.5 50.5,31.1667 50.5,30.5C 51.4916,30.6716 52.1583,30.3382 52.5,29.5C 54.919,28.6359 56.919,27.3026 58.5,25.5C 59.1667,25.5 59.8333,25.5 60.5,25.5C 62.7857,25.405 64.7857,24.7384 66.5,23.5C 66.5,23.1667 66.5,22.8333 66.5,22.5C 67.791,22.7373 68.791,22.404 69.5,21.5C 70.791,21.7373 71.791,21.404 72.5,20.5C 73.4916,20.6716 74.1583,20.3382 74.5,19.5C 81.1682,17.7046 87.8348,16.0379 94.5,14.5C 98.1461,16.7009 101.979,17.0342 106,15.5C 106.464,16.0944 106.631,16.7611 106.5,17.5 Z M 110.5,18.5 C 108.901,18.7678 107.568,18.4345 106.5,17.5C 107.822,17.67 108.989,17.3366 110,16.5C 110.464,17.0944 110.631,17.7611 110.5,18.5 Z M 34.5,147.5 C 35.1667,147.5 35.8333,147.5 36.5,147.5C 38.2516,149.246 39.5849,151.246 40.5,153.5C 38.1667,151.833 36.1667,149.833 34.5,147.5 Z M 159.5,179.5 C 159.167,179.5 158.833,179.5 158.5,179.5C 158.777,176.552 158.444,173.719 157.5,171C 158,170.5 158.5,170 159,169.5C 159.498,172.817 159.665,176.15 159.5,179.5 Z M 122.5,170.5 C 120.162,172.04 117.495,172.706 114.5,172.5C 116.905,171.232 119.572,170.565 122.5,170.5 Z M 155.5,173.5 C 155.5,174.167 155.167,174.5 154.5,174.5C 154.5,174.167 154.5,173.833 154.5,173.5C 154.369,172.624 154.702,171.957 155.5,171.5C 156.463,171.97 156.463,172.637 155.5,173.5 Z M 136.5,184.5 C 137.167,184.5 137.833,184.5 138.5,184.5C 136.208,186.267 133.542,187.267 130.5,187.5C 130.5,187.167 130.5,186.833 130.5,186.5C 132.102,184.926 134.102,184.259 136.5,184.5 Z"/></g>
<g><path style="opacity:1" fill="#000000" d="M 49.5,7.5 C 50.8333,8.16667 50.8333,8.16667 49.5,7.5 Z"/></g>
<g><path style="opacity:1" fill="#000000" d="M 48.5,9.5 C 47.8333,8.16667 47.8333,8.16667 48.5,9.5 Z"/></g>
<g><path style="opacity:1" fill="#000000" d="M 46.5,10.5 C 45.8333,9.16667 45.8333,9.16667 46.5,10.5 Z"/></g>
<g><path style="opacity:1" fill="#000000" d="M 143.5,10.5 C 142.833,9.16667 142.833,9.16667 143.5,10.5 Z"/></g>
<g><path style="opacity:1" fill="#000000" d="M 143.5,10.5 C 144.833,11.1667 144.833,11.1667 143.5,10.5 Z"/></g>
<g><path style="opacity:1" fill="#000000" d="M 43.5,13.5 C 42.8333,13.5 42.5,13.8333 42.5,14.5C 42.1667,14.5 41.8333,14.5 41.5,14.5C 42.032,11.5404 42.6987,11.2071 43.5,13.5 Z"/></g>
<g><path style="opacity:1" fill="#000000" d="M 145.5,11.5 C 146.833,12.1667 146.833,12.1667 145.5,11.5 Z"/></g>
<g><path style="opacity:1" fill="#000000" d="M 153.5,17.5 C 152.833,16.1667 152.833,16.1667 153.5,17.5 Z"/></g>
<g><path style="opacity:1" fill="#000000" d="M 33.5,20.5 C 32.8333,20.5 32.5,20.8333 32.5,21.5C 31.8333,21.5 31.5,21.8333 31.5,22.5C 30.448,22.6495 29.448,22.4828 28.5,22C 29.9663,21.3645 31.2997,20.5312 32.5,19.5C 33.1067,19.6236 33.44,19.9569 33.5,20.5 Z"/></g>
<g><path style="opacity:1" fill="#000000" d="M 26.5,23.5 C 27.7733,24.0768 27.7733,24.7435 26.5,25.5C 25.537,25.0302 25.537,24.3635 26.5,23.5 Z"/></g>
<g><path style="opacity:1" fill="#000000" d="M 62.5,23.5 C 63.8333,23.5 65.1667,23.5 66.5,23.5C 64.7857,24.7384 62.7857,25.405 60.5,25.5C 60.5,25.1667 60.5,24.8333 60.5,24.5C 61.4916,24.6716 62.1583,24.3382 62.5,23.5 Z"/></g>
<g><path style="opacity:1" fill="#000000" d="M 171.5,35.5 C 172.833,36.1667 172.833,36.8333 171.5,37.5C 171.5,36.8333 171.5,36.1667 171.5,35.5 Z"/></g>
<g><path style="opacity:1" fill="#000000" d="M 175.5,39.5 C 176.833,40.1667 176.833,40.1667 175.5,39.5 Z"/></g>
<g><path style="opacity:1" fill="#000000" d="M 176.5,41.5 C 177.833,42.1667 177.833,42.1667 176.5,41.5 Z"/></g>
<g><path style="opacity:1" fill="#000000" d="M 177.5,43.5 C 178.833,44.1667 178.833,44.1667 177.5,43.5 Z"/></g>
<g><path style="opacity:1" fill="#000000" d="M 8.5,49.5 C 7.83333,48.1667 7.83333,48.1667 8.5,49.5 Z"/></g>
<g><path style="opacity:1" fill="#000000" d="M 7.5,51.5 C 6.83333,50.1667 6.83333,50.1667 7.5,51.5 Z"/></g>
<g><path style="opacity:1" fill="#000000" d="M 5.5,52.5 C 6.83333,53.1667 6.83333,53.1667 5.5,52.5 Z"/></g>
<g><path style="opacity:1" fill="#000000" d="M 184.5,58.5 C 184.672,57.5084 184.338,56.8417 183.5,56.5C 183.234,54.6526 183.568,53.986 184.5,54.5C 185.705,55.9948 185.705,57.3281 184.5,58.5 Z"/></g>
<g><path style="opacity:1" fill="#000000" d="M 4.5,54.5 C 5.83333,55.1667 5.83333,55.1667 4.5,54.5 Z"/></g>
<g><path style="opacity:1" fill="#000000" d="M 22.5,63.5 C 22.8333,63.5 23.1667,63.5 23.5,63.5C 23.405,65.7857 22.7384,67.7857 21.5,69.5C 21.5,68.1667 21.5,66.8333 21.5,65.5C 22.3382,65.1583 22.6716,64.4916 22.5,63.5 Z"/></g>
<g><path style="opacity:1" fill="#000000" d="M 191.5,88.5 C 191.167,88.5 190.833,88.5 190.5,88.5C 190.81,85.2869 190.477,82.2869 189.5,79.5C 189.336,76.8127 189.503,74.146 190,71.5C 191.029,77.1231 191.529,82.7898 191.5,88.5 Z"/></g>
<g><path style="opacity:1" fill="#000000" d="M 191.5,88.5 C 192.833,93.8333 192.833,99.1667 191.5,104.5C 191.5,99.1667 191.5,93.8333 191.5,88.5 Z"/></g>
<g><path style="opacity:1" fill="#000000" d="M 188.5,119.5 C 188.833,119.5 189.167,119.5 189.5,119.5C 189.784,121.415 189.451,123.081 188.5,124.5C 188.5,122.833 188.5,121.167 188.5,119.5 Z"/></g>
<g><path style="opacity:1" fill="#000000" d="M 21.5,122.5 C 22.9238,124.515 23.5905,126.848 23.5,129.5C 23.1667,129.5 22.8333,129.5 22.5,129.5C 22.7373,128.209 22.404,127.209 21.5,126.5C 21.5,125.167 21.5,123.833 21.5,122.5 Z"/></g>
<g><path style="opacity:1" fill="#000000" d="M 187.5,124.5 C 187.833,124.5 188.167,124.5 188.5,124.5C 188.768,126.099 188.434,127.432 187.5,128.5C 187.5,127.167 187.5,125.833 187.5,124.5 Z"/></g>
<g><path style="opacity:1" fill="#000000" d="M 186.5,128.5 C 186.833,128.5 187.167,128.5 187.5,128.5C 187.672,129.492 187.338,130.158 186.5,130.5C 186.5,129.833 186.5,129.167 186.5,128.5 Z"/></g>
<g><path style="opacity:1" fill="#000000" d="M 185.5,130.5 C 185.833,130.5 186.167,130.5 186.5,130.5C 186.737,131.791 186.404,132.791 185.5,133.5C 185.5,132.5 185.5,131.5 185.5,130.5 Z"/></g>
<g><path style="opacity:1" fill="#000000" d="M 4.5,133.5 C 4.64945,134.552 4.48278,135.552 4,136.5C 3.25988,135.251 3.42654,134.251 4.5,133.5 Z"/></g>
<g><path style="opacity:1" fill="#000000" d="M 184.5,133.5 C 184.833,133.5 185.167,133.5 185.5,133.5C 185.293,136.241 184.293,138.574 182.5,140.5C 182.5,139.5 182.5,138.5 182.5,137.5C 183.338,137.158 183.672,136.492 183.5,135.5C 184.338,135.158 184.672,134.492 184.5,133.5 Z"/></g>
<g><path style="opacity:1" fill="#000000" d="M 4.5,137.5 C 5.83333,138.167 5.83333,138.167 4.5,137.5 Z"/></g>
<g><path style="opacity:1" fill="#000000" d="M 6.5,139.5 C 5.83333,140.167 5.83333,140.167 6.5,139.5 Z"/></g>
<g><path style="opacity:1" fill="#000000" d="M 181.5,140.5 C 181.833,140.5 182.167,140.5 182.5,140.5C 182.672,141.492 182.338,142.158 181.5,142.5C 181.5,141.833 181.5,141.167 181.5,140.5 Z"/></g>
<g><path style="opacity:1" fill="#000000" d="M 7.5,141.5 C 6.83333,142.167 6.83333,142.167 7.5,141.5 Z"/></g>
<g><path style="opacity:1" fill="#000000" d="M 180.5,142.5 C 180.833,142.5 181.167,142.5 181.5,142.5C 181.672,143.492 181.338,144.158 180.5,144.5C 180.5,143.833 180.5,143.167 180.5,142.5 Z"/></g>
<g><path style="opacity:1" fill="#000000" d="M 8.5,143.5 C 7.83333,144.167 7.83333,144.167 8.5,143.5 Z"/></g>
<g><path style="opacity:1" fill="#000000" d="M 179.5,144.5 C 179.833,144.5 180.167,144.5 180.5,144.5C 180.672,145.492 180.338,146.158 179.5,146.5C 179.5,145.833 179.5,145.167 179.5,144.5 Z"/></g>
<g><path style="opacity:1" fill="#000000" d="M 33.5,146.5 C 33.5,146.167 33.5,145.833 33.5,145.5C 35.0269,145.427 36.0269,146.094 36.5,147.5C 35.8333,147.5 35.1667,147.5 34.5,147.5C 34.5,146.833 34.1667,146.5 33.5,146.5 Z"/></g>
<g><path style="opacity:1" fill="#000000" d="M 178.5,146.5 C 178.833,146.5 179.167,146.5 179.5,146.5C 179.672,147.492 179.338,148.158 178.5,148.5C 178.5,147.833 178.5,147.167 178.5,146.5 Z"/></g>
<g><path style="opacity:1" fill="#000000" d="M 177.5,148.5 C 177.833,148.5 178.167,148.5 178.5,148.5C 178.315,149.17 177.981,149.17 177.5,148.5 Z"/></g>
<g><path style="opacity:1" fill="#000000" d="M 176.5,150.5 C 177.833,151.167 177.833,151.167 176.5,150.5 Z"/></g>
<g><path style="opacity:1" fill="#000000" d="M 14.5,151.5 C 14.631,152.239 14.4643,152.906 14,153.5C 13.3083,152.563 13.475,151.897 14.5,151.5 Z"/></g>
<g><path style="opacity:1" fill="#000000" d="M 176.5,151.5 C 175.833,152.167 175.833,152.167 176.5,151.5 Z"/></g>
<g><path style="opacity:1" fill="#000000" d="M 16.5,155.5 C 16.8333,155.5 17.1667,155.5 17.5,155.5C 17.3284,156.492 17.6618,157.158 18.5,157.5C 18.631,158.239 18.4643,158.906 18,159.5C 16.8118,158.437 16.3118,157.103 16.5,155.5 Z"/></g>
<g><path style="opacity:1" fill="#000000" d="M 171.5,156.5 C 172.833,157.167 172.833,157.167 171.5,156.5 Z"/></g>
<g><path style="opacity:1" fill="#000000" d="M 171.5,157.5 C 170.833,158.167 170.833,158.167 171.5,157.5 Z"/></g>
<g><path style="opacity:1" fill="#000000" d="M 167.5,161.5 C 167.833,161.5 168.167,161.5 168.5,161.5C 168.315,162.17 167.981,162.17 167.5,161.5 Z"/></g>
<g><path style="opacity:1" fill="#000000" d="M 166.5,162.5 C 166.833,162.5 167.167,162.5 167.5,162.5C 167.315,163.17 166.981,163.17 166.5,162.5 Z"/></g>
<g><path style="opacity:1" fill="#000000" d="M 165.5,163.5 C 165.833,163.5 166.167,163.5 166.5,163.5C 166.315,164.17 165.981,164.17 165.5,163.5 Z"/></g>
<g><path style="opacity:1" fill="#000000" d="M 57.5,165.5 C 57.5,165.167 57.5,164.833 57.5,164.5C 59.0269,164.427 60.0269,165.094 60.5,166.5C 59.8333,166.5 59.1667,166.5 58.5,166.5C 58.5,165.833 58.1667,165.5 57.5,165.5 Z"/></g>
<g><path style="opacity:1" fill="#000000" d="M 164.5,164.5 C 164.833,164.5 165.167,164.5 165.5,164.5C 166.952,165.302 168.618,165.802 170.5,166C 167.961,166.796 165.628,166.629 163.5,165.5C 164.167,165.5 164.5,165.167 164.5,164.5 Z"/></g>
<g><path style="opacity:1" fill="#000000" d="M 60.5,167.5 C 60.5,167.167 60.5,166.833 60.5,166.5C 62.7857,166.595 64.7857,167.262 66.5,168.5C 65.1667,168.5 63.8333,168.5 62.5,168.5C 62.1583,167.662 61.4916,167.328 60.5,167.5 Z"/></g>
<g><path style="opacity:1" fill="#000000" d="M 173.5,169.5 C 174.497,168.287 175.497,168.454 176.5,170C 175.906,170.464 175.239,170.631 174.5,170.5C 173.833,170.5 173.5,170.167 173.5,169.5 Z"/></g>
<g><path style="opacity:1" fill="#000000" d="M 35.5,173.5 C 35.5,173.833 35.5,174.167 35.5,174.5C 34.8299,174.019 34.8299,173.685 35.5,173.5 Z"/></g>
<g><path style="opacity:1" fill="#000000" d="M 35.5,174.5 C 36.8333,175.167 36.8333,175.167 35.5,174.5 Z"/></g>
<g><path style="opacity:1" fill="#000000" d="M 150.5,176.5 C 150.5,176.167 150.5,175.833 150.5,175.5C 151.167,175.5 151.833,175.5 152.5,175.5C 152.158,176.338 151.492,176.672 150.5,176.5 Z"/></g>
<g><path style="opacity:1" fill="#000000" d="M 150.5,176.5 C 149.833,177.167 149.833,177.167 150.5,176.5 Z"/></g>
<g><path style="opacity:1" fill="#000000" d="M 146.5,179.5 C 147.833,180.167 147.833,180.167 146.5,179.5 Z"/></g>
<g><path style="opacity:1" fill="#000000" d="M 158.5,179.5 C 158.833,179.5 159.167,179.5 159.5,179.5C 159.328,180.492 159.662,181.158 160.5,181.5C 160.328,182.492 160.662,183.158 161.5,183.5C 161.607,185.379 161.107,185.712 160,184.5C 158.991,182.975 158.491,181.308 158.5,179.5 Z"/></g>
<g><path style="opacity:1" fill="#000000" d="M 144.5,180.5 C 145.833,181.167 145.833,181.167 144.5,180.5 Z"/></g>
<g><path style="opacity:1" fill="#000000" d="M 44.5,181.5 C 44.8333,181.5 45.1667,181.5 45.5,181.5C 45.3147,182.17 44.9813,182.17 44.5,181.5 Z"/></g>
<g><path style="opacity:1" fill="#000000" d="M 142.5,181.5 C 143.833,182.167 143.833,182.167 142.5,181.5 Z"/></g>
<g><path style="opacity:1" fill="#000000" d="M 47.5,182.5 C 46.8333,183.167 46.8333,183.167 47.5,182.5 Z"/></g>
<g><path style="opacity:1" fill="#000000" d="M 140.5,182.5 C 141.833,183.167 141.833,183.167 140.5,182.5 Z"/></g>
<g><path style="opacity:1" fill="#000000" d="M 186.5,184.5 C 186.511,181.999 187.178,181.832 188.5,184C 187.906,184.464 187.239,184.631 186.5,184.5 Z"/></g>
<g><path style="opacity:1" fill="#000000" d="M 48.5,183.5 C 49.8333,184.167 49.8333,184.167 48.5,183.5 Z"/></g>
<g><path style="opacity:1" fill="#000000" d="M 138.5,183.5 C 139.833,184.167 139.833,184.167 138.5,183.5 Z"/></g>
<g><path style="opacity:1" fill="#000000" d="M 128.5,188.5 C 128.5,188.167 128.5,187.833 128.5,187.5C 129.167,187.5 129.833,187.5 130.5,187.5C 130.158,188.338 129.492,188.672 128.5,188.5 Z"/></g>
<g><path style="opacity:1" fill="#000000" d="M 123.5,189.5 C 123.5,189.167 123.5,188.833 123.5,188.5C 125.167,188.5 126.833,188.5 128.5,188.5C 127.081,189.451 125.415,189.784 123.5,189.5 Z"/></g>
<g><path style="opacity:1" fill="#000000" d="M 121.5,190.5 C 121.5,190.167 121.5,189.833 121.5,189.5C 122.167,189.5 122.833,189.5 123.5,189.5C 123.158,190.338 122.492,190.672 121.5,190.5 Z"/></g>
<g><path style="opacity:1" fill="#000000" d="M 74.5,190.5 C 75.5676,191.434 76.901,191.768 78.5,191.5C 78.5,191.833 78.5,192.167 78.5,192.5C 75.1262,192.326 71.7928,191.826 68.5,191C 70.4727,190.505 72.4727,190.338 74.5,190.5 Z"/></g>
<g><path style="opacity:1" fill="#000000" d="M 116.5,191.5 C 116.5,191.167 116.5,190.833 116.5,190.5C 118.167,190.5 119.833,190.5 121.5,190.5C 120.081,191.451 118.415,191.784 116.5,191.5 Z"/></g>
<g><path style="opacity:1" fill="#000000" d="M 108.5,191.5 C 111.167,191.5 113.833,191.5 116.5,191.5C 109.228,193.017 101.728,193.684 94,193.5C 88.6555,193.499 83.4889,193.166 78.5,192.5C 88.6806,192.827 98.6806,192.494 108.5,191.5 Z"/></g>
<g><path style="opacity:1" fill="#000000" d="M 195.5,192.5 C 196.833,193.167 196.833,193.167 195.5,192.5 Z"/></g>
<g><path style="opacity:1" fill="#000000" d="M 171.5,194.5 C 172.167,194.5 172.5,194.833 172.5,195.5C 171.503,196.713 170.503,196.546 169.5,195C 170.094,194.536 170.761,194.369 171.5,194.5 Z"/></g>
<g><path style="opacity:1" fill="#000000" d="M 198.5,195.5 C 199.833,196.167 199.833,196.167 198.5,195.5 Z"/></g>
<g><path style="opacity:1" fill="#000000" d="M 174.5,199.5 C 175.833,200.167 175.833,200.167 174.5,199.5 Z"/></g>
<g><path style="opacity:1" fill="#000000" d="M 177.5,201.5 C 178.167,201.5 178.5,201.833 178.5,202.5C 178.253,204.975 177.587,204.975 176.5,202.5C 176.624,201.893 176.957,201.56 177.5,201.5 Z"/></g>
<g><path style="opacity:1" fill="#000000" d="M 189.5,216.5 C 189.5,216.833 189.5,217.167 189.5,217.5C 188.83,217.019 188.83,216.685 189.5,216.5 Z"/></g>
<g><path style="opacity:1" fill="#000000" d="M 189.5,217.5 C 190.167,217.5 190.5,217.833 190.5,218.5C 190.167,218.167 189.833,217.833 189.5,217.5 Z"/></g>
<g><path style="opacity:1" fill="#000000" d="M 217.5,217.5 C 218.833,218.167 218.833,218.167 217.5,217.5 Z"/></g>
<g><path style="opacity:1" fill="#000000" d="M 190.5,218.5 C 191.167,218.5 191.5,218.833 191.5,219.5C 191.167,219.167 190.833,218.833 190.5,218.5 Z"/></g>
<g><path style="opacity:1" fill="#000000" d="M 191.5,219.5 C 192.167,219.5 192.5,219.833 192.5,220.5C 192.167,220.167 191.833,219.833 191.5,219.5 Z"/></g>
<g><path style="opacity:1" fill="#000000" d="M 192.5,220.5 C 193.167,220.5 193.5,220.833 193.5,221.5C 193.167,221.167 192.833,220.833 192.5,220.5 Z"/></g>
<g><path style="opacity:1" fill="#000000" d="M 193.5,221.5 C 194.833,222.167 194.833,222.167 193.5,221.5 Z"/></g>
<g><path style="opacity:1" fill="#000000" d="M 204.5,232.5 C 203.833,233.167 203.833,233.167 204.5,232.5 Z"/></g>
</svg>
