<?xml version="1.0" encoding="UTF-8"?>
<!DOCTYPE svg PUBLIC "-//W3C//DTD SVG 1.1//EN" "http://www.w3.org/Graphics/SVG/1.1/DTD/svg11.dtd">
<svg xmlns="http://www.w3.org/2000/svg" version="1.1" width="240px" height="240px" style="shape-rendering:geometricPrecision; text-rendering:geometricPrecision; image-rendering:optimizeQuality; fill-rule:evenodd; clip-rule:evenodd" xmlns:xlink="http://www.w3.org/1999/xlink">
<g><path style="opacity:1" fill="#000000" d="M 128.5,29.5 C 128.5,56.1667 128.5,82.8333 128.5,109.5C 154.502,109.333 180.502,109.5 206.5,110C 211.053,111.225 213.387,114.225 213.5,119C 213.205,121.923 211.871,124.257 209.5,126C 182.833,126.333 156.167,126.667 129.5,127C 229.498,127.833 229.498,128.333 129.5,128.5C 129.667,155.169 129.5,181.835 129,208.5C 128.617,209.056 128.117,209.389 127.5,209.5C 127.167,206.833 126.833,206.833 126.5,209.5C 125.833,209.5 125.5,209.833 125.5,210.5C 122.735,211.976 119.401,212.643 115.5,212.5C 115.167,211.167 114.833,211.167 114.5,212.5C 112.621,212.607 112.288,212.107 113.5,211C 112.364,209.855 111.364,208.688 110.5,207.5C 110.5,180.833 110.5,154.167 110.5,127.5C 84.4979,127.667 58.4979,127.5 32.5,127C 25.8519,124.53 24.0185,120.03 27,113.5C 27.9025,112.299 29.0692,111.465 30.5,111C 56.8312,110.5 83.1646,110.333 109.5,110.5C 109.667,1.1687 110.167,1.1687 111,110.5C 111.333,83.1667 111.667,55.8333 112,28.5C 113.385,27.4495 114.385,26.1161 115,24.5C 116.147,25.4581 117.147,25.1247 118,23.5C 119.796,24.767 121.629,24.767 123.5,23.5C 124.5,24 125.5,24.5 126.5,25C 126.167,25.3333 125.833,25.6667 125.5,26C 126.636,27.1451 127.636,28.3117 128.5,29.5 Z"/></g>
<g><path style="opacity:1" fill="#000000" d="M 129.5,29.5 C 129.167,29.5 128.833,29.5 128.5,29.5C 128.833,26.8333 129.167,26.8333 129.5,29.5 Z"/></g>
<g><path style="opacity:1" fill="#000000" d="M 129.5,29.5 C 130.662,49.3291 130.829,69.3291 130,89.5C 129.5,69.5028 129.333,49.5028 129.5,29.5 Z"/></g>
<g><path style="opacity:1" fill="#000000" d="M 33.5,109.5 C 57.9966,108.337 82.6632,108.17 107.5,109C 82.8356,109.5 58.1689,109.667 33.5,109.5 Z"/></g>
<g><path style="opacity:1" fill="#000000" d="M 110.5,207.5 C 110.607,209.379 110.107,209.712 109,208.5C 108.333,187.5 108.333,166.5 109,145.5C 109.168,166.337 109.668,187.004 110.5,207.5 Z"/></g>
<g><path style="opacity:1" fill="#000000" d="M 126.5,209.5 C 126.833,209.5 127.167,209.5 127.5,209.5C 127.315,210.17 126.981,210.17 126.5,209.5 Z"/></g>
<g><path style="opacity:1" fill="#000000" d="M 125.5,210.5 C 125.833,210.5 126.167,210.5 126.5,210.5C 126.315,211.17 125.981,211.17 125.5,210.5 Z"/></g>
<g><path style="opacity:1" fill="#000000" d="M 114.5,212.5 C 114.833,212.5 115.167,212.5 115.5,212.5C 115.315,213.17 114.981,213.17 114.5,212.5 Z"/></g>
</svg>
