<?xml version="1.0" encoding="UTF-8"?>
<!DOCTYPE svg PUBLIC "-//W3C//DTD SVG 1.1//EN" "http://www.w3.org/Graphics/SVG/1.1/DTD/svg11.dtd">
<svg xmlns="http://www.w3.org/2000/svg" version="1.1" width="240px" height="240px" style="shape-rendering:geometricPrecision; text-rendering:geometricPrecision; image-rendering:optimizeQuality; fill-rule:evenodd; clip-rule:evenodd" xmlns:xlink="http://www.w3.org/1999/xlink">
<g><path style="opacity:1" fill="#000000" d="M 239.5,113.5 C 239.5,117.167 239.5,120.833 239.5,124.5C 238.215,130.559 235.215,135.726 230.5,140C 222.786,142.244 214.953,143.744 207,144.5C 208.078,170.202 207.411,195.869 205,221.5C 204.226,225.147 203.559,228.814 203,232.5C 200.604,235.067 198.104,237.4 195.5,239.5C 144.833,239.5 94.1667,239.5 43.5,239.5C 40.8959,237.4 38.3959,235.067 36,232.5C 33.2038,214.789 31.7038,196.955 31.5,179C 32.3749,167.506 32.5415,156.006 32,144.5C 24.0471,143.744 16.2138,142.244 8.5,140C 3.78536,135.726 0.785362,130.559 -0.5,124.5C -0.5,120.833 -0.5,117.167 -0.5,113.5C 4.22454,107.072 8.72454,100.405 13,93.5C 35.8902,70.4846 61.3902,50.9846 89.5,35C 97.3555,31.24 105.022,27.24 112.5,23C 117.167,22.3333 121.833,22.3333 126.5,23C 149.904,34.8708 172.237,48.5375 193.5,64C 204.632,73.4639 215.466,83.2973 226,93.5C 230.275,100.405 234.775,107.072 239.5,113.5 Z M 116.5,40.5 C 118.527,40.3379 120.527,40.5045 122.5,41C 153.739,56.9069 182.239,76.7402 208,100.5C 213.414,106.747 218.247,113.414 222.5,120.5C 222.278,123.713 220.612,125.546 217.5,126C 210.447,126.761 203.447,127.761 196.5,129C 194.321,130.848 192.487,133.015 191,135.5C 190.032,139.944 189.532,144.444 189.5,149C 191.194,173.221 190.694,197.388 188,221.5C 187.097,222.701 185.931,223.535 184.5,224C 148.997,223.602 113.497,223.768 78,224.5C 70.1667,224.333 62.3333,224.167 54.5,224C 53.0692,223.535 51.9025,222.701 51,221.5C 48.3055,197.388 47.8055,173.221 49.5,149C 49.4675,144.444 48.9675,139.944 48,135.5C 46.5126,133.015 44.6792,130.848 42.5,129C 35.553,127.761 28.553,126.761 21.5,126C 18.3885,125.546 16.7218,123.713 16.5,120.5C 20.7528,113.414 25.5861,106.747 31,100.5C 56.9333,76.7157 85.4333,56.7157 116.5,40.5 Z"/></g>
<g><path style="opacity:1" fill="#000000" d="M 111.5,129.5 C 124.734,128.392 137.067,131.225 148.5,138C 164.649,156.07 170.816,177.237 167,201.5C 166.215,203.286 165.049,204.786 163.5,206C 160.5,206.667 157.5,206.667 154.5,206C 153.299,205.097 152.465,203.931 152,202.5C 153.288,185.93 149.621,170.597 141,156.5C 129.325,145.367 116.492,143.867 102.5,152C 95.5553,159.137 91.0553,167.637 89,177.5C 88.0999,186.553 87.0999,195.553 86,204.5C 82.8169,206.523 79.3169,207.023 75.5,206C 74.6667,205.167 73.8333,204.333 73,203.5C 67.8435,178.619 73.6768,156.786 90.5,138C 97.3725,134.554 104.372,131.721 111.5,129.5 Z"/></g>
</svg>
